{
   "accessors" : [
      {
         "bufferView" : 0,
         "byteOffset" : 0,
         "componentType" : 5123,
         "count" : 348,
         "max" : [ 93 ],
         "min" : [ 0 ],
         "name" : "buffer-0-group-0-mesh-0-indices",
         "type" : "SCALAR"
      },
      {
         "bufferView" : 2,
         "byteOffset" : 0,
         "componentType" : 5126,
         "count" : 94,
         "max" : [ 0.981115996837616, 0.7505049705505371, 0.8000689744949341 ],
         "min" : [ -0.9911310076713562, -0.6087629795074463, -0.4142979979515076 ],
         "name" : "buffer-0-group-0-mesh-0-position",
         "type" : "VEC3"
      },
      {
         "bufferView" : 2,
         "byteOffset" : 1128,
         "componentType" : 5126,
         "count" : 94,
         "max" : [ 1, 1, 1 ],
         "min" : [ -1, -1, -1 ],
         "name" : "buffer-0-group-0-mesh-0-normal",
         "type" : "VEC3"
      },
      {
         "bufferView" : 0,
         "byteOffset" : 696,
         "componentType" : 5123,
         "count" : 108,
         "max" : [ 59 ],
         "min" : [ 0 ],
         "name" : "buffer-0-group-1-mesh-0-indices",
         "type" : "SCALAR"
      },
      {
         "bufferView" : 2,
         "byteOffset" : 2256,
         "componentType" : 5126,
         "count" : 60,
         "max" : [ 0.3501020073890686, 0.389369010925293, 0 ],
         "min" : [ -0.3472650051116943, -0.2931689918041229, -1.794939041137695 ],
         "name" : "buffer-0-group-1-mesh-0-position",
         "type" : "VEC3"
      },
      {
         "bufferView" : 2,
         "byteOffset" : 2976,
         "componentType" : 5126,
         "count" : 60,
         "max" : [ 1, 0.9379000067710876, 0 ],
         "min" : [ -1, -0.9379000067710876, -1 ],
         "name" : "buffer-0-group-1-mesh-0-normal",
         "type" : "VEC3"
      },
      {
         "bufferView" : 1,
         "byteOffset" : 0,
         "componentType" : 5126,
         "count" : 60,
         "max" : [ 0, 0 ],
         "min" : [ 0, 0 ],
         "name" : "buffer-0-group-1-mesh-0-texcoord",
         "type" : "VEC2"
      },
      {
         "bufferView" : 0,
         "byteOffset" : 912,
         "componentType" : 5123,
         "count" : 70920,
         "max" : [ 36307 ],
         "min" : [ 0 ],
         "name" : "buffer-0-group-2-mesh-0-indices",
         "type" : "SCALAR"
      },
      {
         "bufferView" : 2,
         "byteOffset" : 3696,
         "componentType" : 5126,
         "count" : 36308,
         "max" : [ 4.398755073547363, 5.339615821838379, 4.529332160949707 ],
         "min" : [ -4.369952201843262, -5.294156074523926, -4.722417831420898 ],
         "name" : "buffer-0-group-2-mesh-0-position",
         "type" : "VEC3"
      },
      {
         "bufferView" : 2,
         "byteOffset" : 439392,
         "componentType" : 5126,
         "count" : 36308,
         "max" : [ 1, 1, 1 ],
         "min" : [ -1, -1, -1 ],
         "name" : "buffer-0-group-2-mesh-0-normal",
         "type" : "VEC3"
      },
      {
         "bufferView" : 1,
         "byteOffset" : 480,
         "componentType" : 5126,
         "count" : 36308,
         "max" : [ 0, 0 ],
         "min" : [ 0, 0 ],
         "name" : "buffer-0-group-2-mesh-0-texcoord",
         "type" : "VEC2"
      },
      {
         "bufferView" : 0,
         "byteOffset" : 142752,
         "componentType" : 5123,
         "count" : 18330,
         "max" : [ 4279 ],
         "min" : [ 0 ],
         "name" : "buffer-0-group-3-mesh-0-indices",
         "type" : "SCALAR"
      },
      {
         "bufferView" : 2,
         "byteOffset" : 875088,
         "componentType" : 5126,
         "count" : 4280,
         "max" : [ 1.482833981513977, 0.7795779705047607, 1.493217945098877 ],
         "min" : [ -1.483715057373047, -1.266536951065063, -1.835863947868347 ],
         "name" : "buffer-0-group-3-mesh-0-position",
         "type" : "VEC3"
      },
      {
         "bufferView" : 2,
         "byteOffset" : 926448,
         "componentType" : 5126,
         "count" : 4280,
         "max" : [ 0.9998000264167786, 1, 1 ],
         "min" : [ -0.9998000264167786, -1, -1 ],
         "name" : "buffer-0-group-3-mesh-0-normal",
         "type" : "VEC3"
      },
      {
         "bufferView" : 1,
         "byteOffset" : 290944,
         "componentType" : 5126,
         "count" : 4280,
         "max" : [ 0, 0 ],
         "min" : [ 0, 0 ],
         "name" : "buffer-0-group-3-mesh-0-texcoord",
         "type" : "VEC2"
      },
      {
         "bufferView" : 0,
         "byteOffset" : 179412,
         "componentType" : 5123,
         "count" : 2598,
         "max" : [ 1073 ],
         "min" : [ 0 ],
         "name" : "buffer-0-group-4-mesh-0-indices",
         "type" : "SCALAR"
      },
      {
         "bufferView" : 2,
         "byteOffset" : 977808,
         "componentType" : 5126,
         "count" : 1074,
         "max" : [ 4.123816967010498, 1.20879602432251, 4.374209880828857 ],
         "min" : [ -4.095015048980713, -0.316991001367569, -4.567296981811523 ],
         "name" : "buffer-0-group-4-mesh-0-position",
         "type" : "VEC3"
      },
      {
         "bufferView" : 2,
         "byteOffset" : 990696,
         "componentType" : 5126,
         "count" : 1074,
         "max" : [ 1, 1, 1 ],
         "min" : [ -1, -1, -1 ],
         "name" : "buffer-0-group-4-mesh-0-normal",
         "type" : "VEC3"
      },
      {
         "bufferView" : 1,
         "byteOffset" : 325184,
         "componentType" : 5126,
         "count" : 1074,
         "max" : [ 0, 0 ],
         "min" : [ 0, 0 ],
         "name" : "buffer-0-group-4-mesh-0-texcoord",
         "type" : "VEC2"
      },
      {
         "bufferView" : 0,
         "byteOffset" : 184608,
         "componentType" : 5123,
         "count" : 2448,
         "max" : [ 1567 ],
         "min" : [ 0 ],
         "name" : "buffer-0-group-5-mesh-0-indices",
         "type" : "SCALAR"
      },
      {
         "bufferView" : 2,
         "byteOffset" : 1003584,
         "componentType" : 5126,
         "count" : 1568,
         "max" : [ 4.03598690032959, 5.099324226379395, 4.381272792816162 ],
         "min" : [ -4.007184982299805, -5.094490051269531, -4.574358940124512 ],
         "name" : "buffer-0-group-5-mesh-0-position",
         "type" : "VEC3"
      },
      {
         "bufferView" : 2,
         "byteOffset" : 1022400,
         "componentType" : 5126,
         "count" : 1568,
         "max" : [ 1, 0, 0.00139999995008111 ],
         "min" : [ -1, 0, -0.00139999995008111 ],
         "name" : "buffer-0-group-5-mesh-0-normal",
         "type" : "VEC3"
      },
      {
         "bufferView" : 1,
         "byteOffset" : 333776,
         "componentType" : 5126,
         "count" : 1568,
         "max" : [ 0, 0 ],
         "min" : [ 0, 0 ],
         "name" : "buffer-0-group-5-mesh-0-texcoord",
         "type" : "VEC2"
      },
      {
         "bufferView" : 0,
         "byteOffset" : 189504,
         "componentType" : 5123,
         "count" : 1260,
         "max" : [ 839 ],
         "min" : [ 0 ],
         "name" : "buffer-0-group-6-mesh-0-indices",
         "type" : "SCALAR"
      },
      {
         "bufferView" : 2,
         "byteOffset" : 1041216,
         "componentType" : 5126,
         "count" : 840,
         "max" : [ 0.4448060095310211, 0, 1.493217945098877 ],
         "min" : [ -0.4360949993133545, -1.290007948875427, 0 ],
         "name" : "buffer-0-group-6-mesh-0-position",
         "type" : "VEC3"
      },
      {
         "bufferView" : 2,
         "byteOffset" : 1051296,
         "componentType" : 5126,
         "count" : 840,
         "max" : [ 0.9972000122070312, 1, 0.79339998960495 ],
         "min" : [ -0.9972000122070312, -0.9887999892234802, 0 ],
         "name" : "buffer-0-group-6-mesh-0-normal",
         "type" : "VEC3"
      },
      {
         "bufferView" : 1,
         "byteOffset" : 346320,
         "componentType" : 5126,
         "count" : 840,
         "max" : [ 0, 0 ],
         "min" : [ 0, 0 ],
         "name" : "buffer-0-group-6-mesh-0-texcoord",
         "type" : "VEC2"
      },
      {
         "bufferView" : 0,
         "byteOffset" : 192024,
         "componentType" : 5123,
         "count" : 2208,
         "max" : [ 1471 ],
         "min" : [ 0 ],
         "name" : "buffer-0-group-7-mesh-0-indices",
         "type" : "SCALAR"
      },
      {
         "bufferView" : 2,
         "byteOffset" : 1061376,
         "componentType" : 5126,
         "count" : 1472,
         "max" : [ 4.03598690032959, 5.099324226379395, 4.239082813262939 ],
         "min" : [ -4.007184982299805, -5.053699970245361, -4.432168960571289 ],
         "name" : "buffer-0-group-7-mesh-0-position",
         "type" : "VEC3"
      },
      {
         "bufferView" : 2,
         "byteOffset" : 1079040,
         "componentType" : 5126,
         "count" : 1472,
         "max" : [ 1, 0, 0.00139999995008111 ],
         "min" : [ -1, 0, -0.001500000013038516 ],
         "name" : "buffer-0-group-7-mesh-0-normal",
         "type" : "VEC3"
      },
      {
         "bufferView" : 1,
         "byteOffset" : 353040,
         "componentType" : 5126,
         "count" : 1472,
         "max" : [ 0, 0 ],
         "min" : [ 0, 0 ],
         "name" : "buffer-0-group-7-mesh-0-texcoord",
         "type" : "VEC2"
      },
      {
         "bufferView" : 0,
         "byteOffset" : 196440,
         "componentType" : 5123,
         "count" : 2592,
         "max" : [ 1725 ],
         "min" : [ 0 ],
         "name" : "buffer-0-group-8-mesh-0-indices",
         "type" : "SCALAR"
      },
      {
         "bufferView" : 2,
         "byteOffset" : 1096704,
         "componentType" : 5126,
         "count" : 1726,
         "max" : [ 0.9502710103988647, 0.9621059894561768, 1.47155499458313 ],
         "min" : [ -0.9502990245819092, -0.9379090070724487, 0 ],
         "name" : "buffer-0-group-8-mesh-0-position",
         "type" : "VEC3"
      },
      {
         "bufferView" : 2,
         "byteOffset" : 1117416,
         "componentType" : 5126,
         "count" : 1726,
         "max" : [ 0.9997000098228455, 1, 1 ],
         "min" : [ -0.9997000098228455, -0.9987000226974487, -0.9995999932289124 ],
         "name" : "buffer-0-group-8-mesh-0-normal",
         "type" : "VEC3"
      },
      {
         "bufferView" : 1,
         "byteOffset" : 364816,
         "componentType" : 5126,
         "count" : 1726,
         "max" : [ 0, 0 ],
         "min" : [ 0, 0 ],
         "name" : "buffer-0-group-8-mesh-0-texcoord",
         "type" : "VEC2"
      },
      {
         "bufferView" : 0,
         "byteOffset" : 201624,
         "componentType" : 5123,
         "count" : 180,
         "max" : [ 63 ],
         "min" : [ 0 ],
         "name" : "buffer-0-group-9-mesh-0-indices",
         "type" : "SCALAR"
      },
      {
         "bufferView" : 2,
         "byteOffset" : 1138128,
         "componentType" : 5126,
         "count" : 64,
         "max" : [ 1.23547899723053, 0.1011309996247292, 0 ],
         "min" : [ -1.229593992233276, 0, -1.421291947364807 ],
         "name" : "buffer-0-group-9-mesh-0-position",
         "type" : "VEC3"
      },
      {
         "bufferView" : 2,
         "byteOffset" : 1138896,
         "componentType" : 5126,
         "count" : 64,
         "max" : [ 0, 0, 0 ],
         "min" : [ 0, 0, -1 ],
         "name" : "buffer-0-group-9-mesh-0-normal",
         "type" : "VEC3"
      },
      {
         "bufferView" : 1,
         "byteOffset" : 378624,
         "componentType" : 5126,
         "count" : 64,
         "max" : [ 0, 0 ],
         "min" : [ 0, 0 ],
         "name" : "buffer-0-group-9-mesh-0-texcoord",
         "type" : "VEC2"
      },
      {
         "bufferView" : 0,
         "byteOffset" : 201984,
         "componentType" : 5123,
         "count" : 210,
         "max" : [ 135 ],
         "min" : [ 0 ],
         "name" : "buffer-0-group-10-mesh-0-indices",
         "type" : "SCALAR"
      },
      {
         "bufferView" : 2,
         "byteOffset" : 1139664,
         "componentType" : 5126,
         "count" : 136,
         "max" : [ 0.9498410224914551, 1.509433031082153, 1.450482964515686 ],
         "min" : [ -0.9454939961433411, -0.9438650012016296, -0.7136539816856384 ],
         "name" : "buffer-0-group-10-mesh-0-position",
         "type" : "VEC3"
      },
      {
         "bufferView" : 2,
         "byteOffset" : 1141296,
         "componentType" : 5126,
         "count" : 136,
         "max" : [ 0.5662000179290771, 0.9747999906539917, 1 ],
         "min" : [ -0.5662000179290771, -0.5662000179290771, -0.2809000015258789 ],
         "name" : "buffer-0-group-10-mesh-0-normal",
         "type" : "VEC3"
      },
      {
         "bufferView" : 1,
         "byteOffset" : 379136,
         "componentType" : 5126,
         "count" : 136,
         "max" : [ 1, 0 ],
         "min" : [ 0, -1 ],
         "name" : "buffer-0-group-10-mesh-0-texcoord",
         "type" : "VEC2"
      }
   ],
   "asset" : {
      "generator" : "Obj2GltfConverter",
      "version" : "2.0"
   },
   "bufferViews" : [
      {
         "buffer" : 0,
         "byteLength" : 202404,
         "byteOffset" : 0,
         "byteStride" : 0,
         "name" : "buffer-0-bufferview-ushort",
         "target" : 34963
      },
      {
         "buffer" : 0,
         "byteLength" : 380224,
         "byteOffset" : 202408,
         "byteStride" : 8,
         "name" : "buffer-0-bufferview-vec2",
         "target" : 34962
      },
      {
         "buffer" : 0,
         "byteLength" : 1142928,
         "byteOffset" : 582636,
         "byteStride" : 12,
         "name" : "buffer-0-bufferview-vec3",
         "target" : 34962
      },
      {
         "buffer" : 0,
         "byteLength" : 1,
         "byteOffset" : 0,
         "name" : "buffer-0-bufferview-vec4"
      }
   ],
   "buffers" : [
      {
         "byteLength" : 1725564,
         "name" : "buffer-0",
         "uri" : "TieFighter1_joined_with_stand.bin"
      }
   ],
   "materials" : [
      {
         "alphaMode" : "OPAQUE",
         "doubleSided" : true,
         "name" : "None",
         "pbrMetallicRoughness" : {
            "baseColorFactor" : [ 0.8, 0.8, 0.8, 1 ],
            "metallicFactor" : 0,
            "roughnessFactor" : 1
         }
      },
      {
         "alphaMode" : "OPAQUE",
         "doubleSided" : true,
         "name" : "BodyMetal",
         "pbrMetallicRoughness" : {
            "baseColorFactor" : [ 0.309989, 0.339851, 0.339851, 1 ],
            "metallicFactor" : 0,
            "roughnessFactor" : 0.7448017359246658
         }
      },
      {
         "alphaMode" : "OPAQUE",
         "doubleSided" : true,
         "name" : "Gray",
         "pbrMetallicRoughness" : {
            "baseColorFactor" : [ 0.088543, 0.088543, 0.088543, 1 ],
            "metallicFactor" : 0,
            "roughnessFactor" : 0.7448017359246658
         }
      },
      {
         "alphaMode" : "OPAQUE",
         "doubleSided" : true,
         "name" : "Black",
         "pbrMetallicRoughness" : {
            "baseColorFactor" : [ 0, 0, 0, 1 ],
            "metallicFactor" : 0,
            "roughnessFactor" : 0.7448017359246658
         }
      },
      {
         "alphaMode" : "OPAQUE",
         "doubleSided" : true,
         "name" : "Wing",
         "pbrMetallicRoughness" : {
            "baseColorFactor" : [ 0.01892, 0.01892, 0.01892, 1 ],
            "metallicFactor" : 0,
            "roughnessFactor" : 0.7448017359246658
         }
      },
      {
         "alphaMode" : "OPAQUE",
         "doubleSided" : true,
         "name" : "CannonRed",
         "pbrMetallicRoughness" : {
            "baseColorFactor" : [ 0.64, 0.019256, 0.027219, 1 ],
            "metallicFactor" : 0,
            "roughnessFactor" : 0.7448017359246658
         }
      },
      {
         "alphaMode" : "BLEND",
         "doubleSided" : true,
         "name" : "EngineGlow",
         "pbrMetallicRoughness" : {
            "baseColorFactor" : [ 0.8, 0.035479, 0.012496, 0.60181 ],
            "metallicFactor" : 0,
            "roughnessFactor" : 0.4642525998512286
         }
      },
      {
         "alphaMode" : "BLEND",
         "doubleSided" : true,
         "name" : "Glass",
         "pbrMetallicRoughness" : {
            "baseColorFactor" : [ 0, 0, 0, 0.1 ],
            "metallicFactor" : 0,
            "roughnessFactor" : 0.004401865189390466
         }
      },
      {
         "alphaMode" : "OPAQUE",
         "doubleSided" : true,
         "name" : "WingLine",
         "pbrMetallicRoughness" : {
            "baseColorFactor" : [ 0.046242, 0.046242, 0.046242, 1 ],
            "metallicFactor" : 0,
            "roughnessFactor" : 0.7448017359246658
         }
      },
      {
         "alphaMode" : "OPAQUE",
         "doubleSided" : true,
         "name" : "Canopy",
         "pbrMetallicRoughness" : {
            "baseColorFactor" : [ 0.161509, 0.161509, 0.161509, 1 ],
            "metallicFactor" : 0,
            "roughnessFactor" : 0.7448017359246658
         }
      }
   ],
   "meshes" : [
      {
         "name" : "buffer-0-mesh-0",
         "primitives" : [
            {
               "attributes" : {
                  "NORMAL" : 2,
                  "POSITION" : 1
               },
               "indices" : 0,
               "material" : 0,
               "mode" : 4
            },
            {
               "attributes" : {
                  "NORMAL" : 5,
                  "POSITION" : 4,
                  "TEXCOORD_0" : 6
               },
               "indices" : 3,
               "material" : 0,
               "mode" : 4
            },
            {
               "attributes" : {
                  "NORMAL" : 9,
                  "POSITION" : 8,
                  "TEXCOORD_0" : 10
               },
               "indices" : 7,
               "material" : 1,
               "mode" : 4
            },
            {
               "attributes" : {
                  "NORMAL" : 13,
                  "POSITION" : 12,
                  "TEXCOORD_0" : 14
               },
               "indices" : 11,
               "material" : 2,
               "mode" : 4
            },
            {
               "attributes" : {
                  "NORMAL" : 17,
                  "POSITION" : 16,
                  "TEXCOORD_0" : 18
               },
               "indices" : 15,
               "material" : 3,
               "mode" : 4
            },
            {
               "attributes" : {
                  "NORMAL" : 21,
                  "POSITION" : 20,
                  "TEXCOORD_0" : 22
               },
               "indices" : 19,
               "material" : 4,
               "mode" : 4
            },
            {
               "attributes" : {
                  "NORMAL" : 25,
                  "POSITION" : 24,
                  "TEXCOORD_0" : 26
               },
               "indices" : 23,
               "material" : 5,
               "mode" : 4
            },
            {
               "attributes" : {
                  "NORMAL" : 29,
                  "POSITION" : 28,
                  "TEXCOORD_0" : 30
               },
               "indices" : 27,
               "material" : 8,
               "mode" : 4
            },
            {
               "attributes" : {
                  "NORMAL" : 33,
                  "POSITION" : 32,
                  "TEXCOORD_0" : 34
               },
               "indices" : 31,
               "material" : 9,
               "mode" : 4
            },
            {
               "attributes" : {
                  "NORMAL" : 37,
                  "POSITION" : 36,
                  "TEXCOORD_0" : 38
               },
               "indices" : 35,
               "material" : 6,
               "mode" : 4
            },
            {
               "attributes" : {
                  "NORMAL" : 41,
                  "POSITION" : 40,
                  "TEXCOORD_0" : 42
               },
               "indices" : 39,
               "material" : 7,
               "mode" : 4
            }
         ]
      }
   ],
   "nodes" : [
      {
         "mesh" : 0,
         "name" : "node-0"
      }
   ],
   "scenes" : [
      {
         "name" : "scene-0",
         "nodes" : [ 0 ]
      }
   ]
}
